<?xml version="1.0" encoding="UTF-8"?>
<svg width="45px" height="42px" viewBox="0 0 45 42" version="1.1" xmlns="http://www.w3.org/2000/svg" xmlns:xlink="http://www.w3.org/1999/xlink" xmlns:sketch="http://www.bohemiancoding.com/sketch/ns">
    <!-- Generator: Sketch 3.4.2 (15855) - http://www.bohemiancoding.com/sketch -->
    <title>instagram copy</title>
    <desc>Created with Sketch.</desc>
    <defs></defs>
    <g id="Page-1" stroke="none" stroke-width="1" fill="none" fill-rule="evenodd" sketch:type="MSPage">
        <g id="HOME-" sketch:type="MSArtboardGroup" transform="translate(-1005.000000, -978.000000)" fill="#000000">
            <g id="instagram-copy" sketch:type="MSLayerGroup" transform="translate(1005.000000, 978.000000)">
                <path d="M22.47,29.0079045 C27.3375,29.0079045 31.29375,25.3661747 31.29375,20.8877614 C31.29375,18.4570663 30.125625,16.2747886 28.2825,14.7842844 C27.63375,14.2615728 26.904375,13.8251172 26.11125,13.4938941 C24.999375,13.0281115 23.769375,12.7676183 22.471875,12.7676183 C21.174375,12.7676183 19.9425,13.0281115 18.8325,13.4938941 C18.0375,13.8285675 17.30625,14.265023 16.66125,14.7860095 C14.814375,16.2765138 13.64625,18.4587914 13.64625,20.8894865 C13.64625,25.3661747 17.60625,29.0079045 22.47,29.0079045 L22.47,29.0079045 Z M22.5,14.8895167 C26.101875,14.8895167 29.023125,17.5755296 29.023125,20.8894865 C29.023125,24.2034433 26.101875,26.8911814 22.5,26.8911814 C18.898125,26.8911814 15.976875,24.2051685 15.976875,20.8894865 C15.976875,17.5755296 18.898125,14.8895167 22.5,14.8895167 L22.5,14.8895167 Z M32.293125,15.5260862 L45,15.5260862 L45,33.2568767 C45,37.7559915 41.03625,41.4028967 36.14625,41.4028967 L8.971875,41.4028967 C4.081875,41.4028967 0,37.7559915 0,33.2568767 L0,15.5260862 L12.650625,15.5260862 C11.630625,17.1011214 11.015625,18.9228489 11.015625,20.8894865 C11.015625,26.7100437 16.14375,31.4282488 22.47,31.4282488 C28.79625,31.4282488 33.924375,26.7100437 33.924375,20.8894865 C33.92625,18.9228489 33.31125,17.1011214 32.293125,15.5260862 L32.293125,15.5260862 Z M36.14625,3.30857181e-15 L13.125,3.30857181e-15 L13.125,8.62560347 L11.25,8.62560347 L11.25,3.30857181e-15 L9.375,3.30857181e-15 L9.375,8.62560347 L7.5,8.62560347 L7.5,0.132834293 C6.85125,0.231166173 6.22125,0.379526553 5.625,0.598616881 L5.625,8.62560347 L3.75,8.62560347 L3.75,1.54915838 C1.49625,3.02758682 0,5.42377946 0,8.14601992 L0,13.8009656 L14.011875,13.8009656 C16.2,11.5893608 19.258125,10.3507242 22.47,10.3507242 C25.69875,10.3507242 28.753125,11.6014367 30.928125,13.8009656 L45,13.8009656 L45,8.14601992 C45,3.64690515 41.03625,1.77635684e-15 36.14625,1.77635684e-15 L36.14625,3.30857181e-15 Z M42.75,9.08276046 C42.75,9.78315946 42.00075,10.3507242 41.07375,10.3507242 L35.424,10.3507242 C34.49925,10.3507242 33.75,9.78315946 33.75,9.08276046 L33.75,4.7182051 C33.75,4.0178061 34.49925,3.45024139 35.424,3.45024139 L41.07375,3.45024139 C42.00075,3.45024139 42.75,4.0178061 42.75,4.7182051 L42.75,9.08276046 L42.75,9.08276046 Z" id="Shape" sketch:type="MSShapeGroup"></path>
            </g>
        </g>
    </g>
</svg>