<?xml version="1.0" encoding="UTF-8"?>
<svg width="53px" height="50px" viewBox="0 0 53 50" version="1.1" xmlns="http://www.w3.org/2000/svg" xmlns:xlink="http://www.w3.org/1999/xlink" xmlns:sketch="http://www.bohemiancoding.com/sketch/ns">
    <!-- Generator: Sketch 3.4.2 (15855) - http://www.bohemiancoding.com/sketch -->
    <title>linkedin-1 copy</title>
    <desc>Created with Sketch.</desc>
    <defs></defs>
    <g id="Page-1" stroke="none" stroke-width="1" fill="none" fill-rule="evenodd" sketch:type="MSPage">
        <g id="HOME-" sketch:type="MSArtboardGroup" transform="translate(-1318.000000, -973.000000)" fill="#000000">
            <g id="linkedin-1-copy" sketch:type="MSLayerGroup" transform="translate(1322.000000, 975.000000)">
                <path d="M9.3375,4.50031485 C9.3375,6.98628878 7.25625,9.00062971 4.6875,9.00062971 C2.11875,9.00062971 0.0375,6.98628878 0.0375,4.50031485 C0.0375,2.01614106 2.11875,0 4.6875,0 C7.25625,0 9.3375,2.01614106 9.3375,4.50031485 L9.3375,4.50031485 Z M9.375,12.6008816 L0,12.6008816 L0,41.4028967 L9.375,41.4028967 L9.375,12.6008816 L9.375,12.6008816 Z M24.34125,12.6008816 L15.02625,12.6008816 L15.02625,41.4028967 L24.343125,41.4028967 L24.343125,26.2836389 C24.343125,17.8770507 35.6475,17.1894026 35.6475,26.2836389 L35.6475,41.4028967 L45,41.4028967 L45,23.1658207 C45,8.98082832 28.27125,9.49746447 24.34125,16.480153 L24.34125,12.6008816 L24.34125,12.6008816 Z" id="Shape" sketch:type="MSShapeGroup"></path>
            </g>
        </g>
    </g>
</svg>