<?xml version="1.0" encoding="UTF-8"?>
<svg width="45px" height="42px" viewBox="0 0 45 42" version="1.1" xmlns="http://www.w3.org/2000/svg" xmlns:xlink="http://www.w3.org/1999/xlink" xmlns:sketch="http://www.bohemiancoding.com/sketch/ns">
    <!-- Generator: Sketch 3.4.2 (15855) - http://www.bohemiancoding.com/sketch -->
    <title>pinterest-4 copy</title>
    <desc>Created with Sketch.</desc>
    <defs></defs>
    <g id="Page-1" stroke="none" stroke-width="1" fill="none" fill-rule="evenodd" sketch:type="MSPage">
        <g id="HOME-" sketch:type="MSArtboardGroup" transform="translate(-1109.000000, -977.000000)" fill="#000000">
            <g id="pinterest-4-copy" sketch:type="MSLayerGroup" transform="translate(1109.000000, 977.000000)">
                <path d="M22.5,0 C10.074375,0 0,9.26907349 0,20.7014483 C0,32.1338232 10.074375,41.4028967 22.5,41.4028967 C34.925625,41.4028967 45,32.1338232 45,20.7014483 C45,9.26907349 34.925625,0 22.5,0 L22.5,0 Z M22.5,32.7772932 C21.148125,32.7772932 19.84125,32.589255 18.613125,32.2390555 C19.149375,31.4368744 19.95,30.1223324 20.244375,29.0734591 L21.06375,26.2028582 C21.493125,26.9550108 22.741875,27.5898553 24.07125,27.5898553 C28.029375,27.5898553 30.883125,24.241396 30.883125,20.0786798 C30.883125,16.0902007 27.343125,13.1057419 22.790625,13.1057419 C17.12625,13.1057419 14.11875,16.6025616 14.11875,20.4116281 C14.11875,22.183327 15.144375,24.3880313 16.785,25.0901554 C17.0325,25.1971129 17.165625,25.1488095 17.22375,24.927994 L17.585625,23.5599733 C17.6175,23.4374898 17.6025,23.3322574 17.49375,23.2114989 C16.95375,22.6077067 16.516875,21.4950039 16.516875,20.4564812 C16.516875,17.7928948 18.70875,15.2155645 22.44375,15.2155645 C25.66875,15.2155645 27.92625,17.237406 27.92625,20.1287083 C27.92625,23.3960869 26.131875,25.6577201 23.799375,25.6577201 C22.51125,25.6577201 21.5475,24.6778515 21.856875,23.4754424 C22.22625,22.0384169 22.944375,20.4909836 22.944375,19.4541861 C22.944375,18.5277963 22.404375,17.7532171 21.283125,17.7532171 C19.966875,17.7532171 18.905625,19.0073798 18.905625,20.6859222 C18.905625,21.7572222 19.30125,22.4800478 19.30125,22.4800478 C19.30125,22.4800478 18,27.5415519 17.761875,28.4817427 C17.495625,29.5254407 17.600625,30.9900682 17.715,31.945785 C12.834375,30.1861619 9.375,25.8164312 9.375,20.7014483 C9.375,14.0321317 15.253125,8.62560347 22.5,8.62560347 C29.746875,8.62560347 35.625,14.0321317 35.625,20.7014483 C35.625,27.3707649 29.746875,32.7772932 22.5,32.7772932 L22.5,32.7772932 Z" id="Shape" sketch:type="MSShapeGroup"></path>
            </g>
        </g>
    </g>
</svg>