<?xml version="1.0" encoding="UTF-8"?>
<svg width="45px" height="41px" viewBox="0 0 45 41" version="1.1" xmlns="http://www.w3.org/2000/svg" xmlns:xlink="http://www.w3.org/1999/xlink" xmlns:sketch="http://www.bohemiancoding.com/sketch/ns">
    <!-- Generator: Sketch 3.4.2 (15855) - http://www.bohemiancoding.com/sketch -->
    <title>twitter-1 copy</title>
    <desc>Created with Sketch.</desc>
    <defs></defs>
    <g id="Page-1" stroke="none" stroke-width="1" fill="none" fill-rule="evenodd" sketch:type="MSPage">
        <g id="HOME-" sketch:type="MSArtboardGroup" transform="translate(-1213.000000, -977.000000)" fill="#000000">
            <g id="twitter-1-copy" sketch:type="MSLayerGroup" transform="translate(1213.000000, 977.000000)">
                <path d="M45,5.29336034 C43.344375,6.10485711 41.565,6.65137535 39.6975,6.89772258 C41.604375,5.63700438 43.06875,3.63931462 43.756875,1.25864806 C41.97375,2.42620974 39.9975,3.27496913 37.89375,3.73247113 C36.211875,1.75134253 33.81,0.513395919 31.155,0.513395919 C25.194375,0.513395919 20.814375,6.65344549 22.160625,13.0274214 C14.49,12.6030417 7.6875,8.54555787 3.133125,2.37859641 C0.714375,6.95982693 1.87875,12.9528962 5.98875,15.9877285 C4.4775,15.9339048 3.0525,15.4764028 1.809375,14.7125193 C1.708125,19.4345197 4.77375,23.8522088 9.21375,24.8355276 C7.914375,25.2247148 6.49125,25.3158012 5.04375,25.0094197 C6.2175,29.058623 9.62625,32.0044391 13.66875,32.0872449 C9.7875,35.44709 4.8975,36.947945 0,36.3103404 C4.085625,39.2023327 8.94,40.8895007 14.1525,40.8895007 C31.29375,40.8895007 40.978125,24.9059125 40.393125,10.5701595 C42.196875,9.13140886 43.7625,7.33659329 45,5.29336034 L45,5.29336034 Z" id="Shape" sketch:type="MSShapeGroup"></path>
            </g>
        </g>
    </g>
</svg>